<?xml version="1.0" standalone="no"?>
<!DOCTYPE svg PUBLIC "-//W3C//DTD SVG 20010904//EN"
 "http://www.w3.org/TR/2001/REC-SVG-20010904/DTD/svg10.dtd">
<svg version="1.0" xmlns="http://www.w3.org/2000/svg"
 width="757.000000pt" height="757.000000pt" viewBox="0 0 757.000000 757.000000"
 preserveAspectRatio="xMidYMid meet">

<g transform="translate(0.000000,757.000000) scale(0.100000,-0.100000)"
fill="#000000" stroke="none">
<path d="M0 3785 l0 -3785 3785 0 3785 0 0 3785 0 3785 -3785 0 -3785 0 0
-3785z m2065 2035 c688 -77 1361 -360 1576 -663 65 -91 112 -189 141 -292 22
-80 22 -83 26 -1000 l3 -919 53 -48 c163 -145 84 -405 -131 -434 -123 -16
-247 82 -266 210 -14 89 36 201 108 246 l35 22 0 881 c-1 959 -2 976 -56 1098
-99 221 -370 405 -804 547 -232 77 -379 110 -635 146 -111 16 -231 23 -240 14
-3 -2 -6 -653 -7 -1446 -2 -1124 0 -1444 9 -1453 7 -7 70 -18 140 -26 582 -59
1079 -229 1423 -485 149 -111 362 -120 505 -21 240 166 396 247 639 332 227
80 594 156 854 177 51 4 89 13 98 21 11 12 14 68 14 311 0 163 1 808 2 1433 1
624 -2 1141 -6 1147 -21 34 -399 -16 -676 -89 -269 -70 -500 -163 -667 -266
-152 -95 -169 -103 -206 -92 -49 14 -72 43 -72 90 0 37 6 46 45 81 46 39 197
131 307 186 116 59 410 162 558 197 248 58 550 105 675 105 92 0 162 -36 205
-105 l30 -48 3 -1461 c2 -1033 0 -1476 -8 -1512 -25 -118 -108 -176 -275 -194
-337 -37 -641 -102 -870 -188 -202 -76 -276 -115 -465 -244 -183 -124 -275
-153 -455 -146 -163 7 -224 33 -466 200 -151 104 -416 215 -664 278 -154 40
-397 81 -590 100 -127 13 -181 34 -225 88 -62 75 -60 25 -61 1276 -1 979 -7
1359 -19 1231 -2 -24 -4 -26 -7 -8 -2 12 -14 25 -26 30 -20 6 -18 8 13 14 19
3 -31 7 -111 8 -113 1 -149 -2 -158 -13 -8 -10 -11 -386 -9 -1429 3 -1402 3
-1417 23 -1436 18 -17 47 -20 255 -31 635 -32 1075 -130 1427 -320 68 -36 113
-69 286 -204 127 -99 228 -136 372 -136 145 1 253 47 408 174 227 187 474 299
832 380 295 66 455 86 849 107 l228 13 19 30 c19 30 19 68 17 1207 -3 1235 -3
1221 -44 1205 -8 -3 -13 0 -11 7 1 7 -5 11 -15 9 -20 -3 -62 53 -54 73 3 8 0
14 -6 12 -6 -1 -13 4 -16 12 -3 9 0 11 8 6 9 -6 10 1 5 26 -11 50 -7 125 9
163 22 52 82 113 131 132 31 11 64 15 109 12 80 -5 136 -39 181 -113 27 -44
30 -57 30 -129 -1 -94 -14 -126 -81 -191 l-44 -43 0 -1159 c0 -750 -4 -1180
-11 -1222 -12 -75 -29 -113 -73 -159 -62 -66 -90 -74 -306 -83 -570 -25 -1031
-114 -1336 -259 -120 -56 -184 -99 -317 -208 -269 -223 -564 -263 -862 -118
-50 25 -121 71 -159 103 -171 146 -333 237 -541 305 -317 104 -656 157 -1130
177 -163 6 -196 10 -230 28 -68 36 -113 95 -139 183 -14 48 -16 203 -16 1459
0 926 4 1419 10 1443 19 67 70 130 130 160 51 26 68 28 210 34 94 4 158 11
162 18 4 6 8 67 8 136 0 187 23 244 119 293 62 31 120 34 276 17z m4179 -233
c15 -11 20 -32 23 -108 5 -86 3 -96 -17 -121 -25 -33 -52 -36 -80 -8 -17 17
-20 33 -20 113 0 68 4 99 16 115 17 25 51 29 78 9z m416 -163 c30 -35 16 -72
-51 -140 -67 -68 -96 -79 -131 -47 -32 28 -21 57 48 132 69 75 106 90 134 55z
m152 -421 c22 -20 23 -51 2 -81 -14 -20 -23 -22 -110 -22 -81 0 -97 3 -114 20
-26 26 -25 50 0 78 18 20 31 22 112 22 71 0 96 -4 110 -17z"/>
</g>
</svg>
